/* XPM */
static char *f53ed800bfe44b7cb64659ef1fc4c766b9ckKhSYGk86Kbu2[] = {
/* columns rows colors chars-per-pixel */
"32 32 72 1 ",
"  c None",
". c black",
"X c #020101",
"o c #070402",
"O c #080503",
"+ c #090503",
"@ c #090603",
"# c #0A0603",
"$ c #0B0704",
"% c #0A0706",
"& c #0C0B0A",
"* c #0E0C0A",
"= c #110E0D",
"- c #131212",
"; c #171514",
": c #1B1816",
"> c #1D1A17",
", c #201E1D",
"< c #37291C",
"1 c #272422",
"2 c #282523",
"3 c #392D21",
"4 c #3E2F20",
"5 c #3F2F20",
"6 c #3A2E29",
"7 c #3E312B",
"8 c #3F312B",
"9 c #3C343C",
"0 c #413122",
"q c #413222",
"w c #423222",
"e c #463625",
"r c #473626",
"t c #43342C",
"y c #44342C",
"u c #44342D",
"i c #44352D",
"p c #46372D",
"a c #46382E",
"s c #47382E",
"d c #4D3B2A",
"f c #493A2F",
"g c #463832",
"h c #473B32",
"j c #483930",
"k c #493930",
"l c #4A3A30",
"z c #4B3B30",
"x c #4B3B31",
"c c #4B3B32",
"v c #4D3E33",
"b c #4F4036",
"n c #4C443D",
"m c #413945",
"M c #413D4E",
"N c #413D4F",
"B c #594C43",
"V c #5D4E4B",
"C c #595148",
"Z c #5E5854",
"A c #645952",
"S c #58526A",
"D c #746C65",
"F c #756D66",
"G c #746C67",
"H c #726D68",
"J c #756D68",
"K c #7A7290",
"L c #948B85",
"P c #978E87",
"I c #958E88",
"U c #999189",
/* pixels */
"                                ",
"       KKKKKKKKKKKKKKKKKK       ",
"     KKSSSSSSSSSSSSSSSSSSKK     ",
"    KSSSSSSSSSSSSSSSSSSSSSSK    ",
"   KSSSSSSSSSSSSSSSSSSSSSSSSK   ",
"  KSSSSNNNNNNNNNNNNNNNNNNSSSSK  ",
" KSSm9NN ...............NNSSSSK ",
"KSSSVBN..................NNSSSSK",
"KSSSgco...................NNSSSK",
"KSSSpe+....................NSSSK",
"KSSSt4#....................NSSSK",
"KSSSIU1....................NSSSK",
"KSSSGG:....................NSSSK",
"KSSS6<o....................NSSSK",
"KSSSpw#....................NSSSK",
"KSSSae#....................NSSSK",
"KSSSvr+....................NSSSK",
"KSSScd%....................NSSSK",
"KSSSfH;....................NSSSK",
"KSSScC*....................NSSSK",
"KSSScn&....................NSSSK",
"KSSScA>....................NSSSK",
"KSSScv=....................NSSSK",
"KSSSfZ-....................NSSSK",
"KSSSvh+....................NSSSK",
"KSSSyw+....................NSSSK",
"KSSSpw+....................NSSSK",
"KSSSLI2....................NSSSK",
"KSSSGG>....................NSSSK",
"KSSS73#....................NSSSK",
"KSSS74#....................NSSSK",
"KSSScw#....................NSSSK"
};
