/* XPM */
static char *c2bcb92b38404ca58079d8040ed2e8779fKFLiIZGeEChRqB[] = {
/* columns rows colors chars-per-pixel */
"32 32 136 2 ",
"   c None",
".  c black",
"X  c #020101",
"o  c #040201",
"O  c gray3",
"+  c #0C0A09",
"@  c #110C07",
"#  c #12110F",
"$  c #191919",
"%  c #271D13",
"&  c #291F13",
"*  c #2A1F13",
"=  c #2C2116",
"-  c #2C2118",
";  c #322518",
":  c #322419",
">  c #30251A",
",  c #33261A",
"<  c #34271A",
"1  c #37291C",
"2  c #38281B",
"3  c #39291B",
"4  c #382A1C",
"5  c #392A1C",
"6  c #3A2A1C",
"7  c #392C1E",
"8  c #322924",
"9  c #3D2E20",
"0  c #3E2E20",
"q  c #3E2F20",
"w  c #3F3020",
"e  c #3A3837",
"r  c #3A3238",
"t  c #3B3238",
"y  c #3F353A",
"u  c #3D353E",
"i  c #423122",
"p  c #433122",
"a  c #423123",
"s  c #413222",
"d  c #433223",
"f  c #433323",
"g  c #443223",
"h  c #443323",
"j  c #443423",
"k  c #433324",
"l  c #443324",
"z  c #443424",
"x  c #453424",
"c  c #453524",
"v  c #463424",
"b  c #463625",
"n  c #463526",
"m  c #473626",
"M  c #473726",
"N  c #483726",
"B  c #493826",
"V  c #483827",
"C  c #493827",
"Z  c #4A3827",
"A  c #4A3928",
"S  c #4B3929",
"D  c #4B3A29",
"F  c #4B3A2B",
"G  c #4C3A28",
"H  c #4C3A29",
"J  c #4D3A29",
"K  c #4C3B2A",
"L  c #4D3B2A",
"P  c #4E3C2A",
"I  c #4F3C2A",
"U  c #4E3D2B",
"Y  c #4F3D2B",
"T  c #4E3D2D",
"R  c #4C3C2E",
"E  c #523F2D",
"W  c #513F2E",
"Q  c #503F2F",
"!  c #413A35",
"~  c #453C36",
"^  c #40363A",
"/  c #41373B",
"(  c #42383B",
")  c #453A3C",
"_  c #463A3C",
"`  c #53412E",
"'  c #53412F",
"]  c #4F4338",
"[  c #524233",
"{  c #554330",
"}  c #564432",
"|  c #584633",
" . c #53473A",
".. c #55483D",
"X. c #57493C",
"o. c #594839",
"O. c #65523C",
"+. c #65523F",
"@. c #403843",
"#. c #413D4F",
"$. c #484340",
"%. c #4D4C4B",
"&. c #4F4D4C",
"*. c #554A42",
"=. c #584A40",
"-. c #5B5854",
";. c #635446",
":. c #625A54",
">. c #625A55",
",. c #554D61",
"<. c #554F66",
"1. c #58526A",
"2. c #675F60",
"3. c #676060",
"4. c #6A6561",
"5. c #6C6966",
"6. c #756B65",
"7. c #766D66",
"8. c #776E67",
"9. c #786F68",
"0. c #797069",
"q. c #7B726B",
"w. c #797878",
"e. c #847D76",
"r. c #857D77",
"t. c #827C7A",
"y. c #847D7B",
"u. c #7A7290",
"i. c #9A9189",
"p. c #9B928A",
"a. c #9E958D",
"s. c #9F968E",
"d. c #9F978F",
"f. c #A29991",
"g. c #A59E96",
"h. c #A5A2A1",
/* pixels */
"                                                                ",
"              u.u.u.u.u.u.u.u.u.u.u.u.u.u.u.u.u.u.              ",
"          u.u.1.1.1.1.1.1.1.1.1.1.1.1.1.1.1.1.1.1.u.u.          ",
"        u.1.1.1.1.1.1.1.1.1.1.1.1.1.1.1.1.1.1.1.1.1.1.u.        ",
"      u.1.1.1.1.1.1.1.1.1.1.1.1.1.1.1.1.1.1.1.1.1.1.1.1.u.      ",
"    u.1.1.1.1.#.#.#.#.#.#.#.#.#.#.#.#.#.#.#.#.#.#.1.1.1.1.u.    ",
"  u.1.1.<.u - = = & o . . . . . . . . . . . . . #.#.1.1.1.1.u.  ",
"u.1.1.1.,.o.+.+.;. .@ . . . . . . . . . . . . . . #.#.1.1.1.1.u.",
"u.1.1.1.@.N N J C T > . . . . . . . . . . . . . . . #.#.1.1.1.u.",
"u.1.1.1.^ l l J E a , . . . . . . . . . . . . . . . . #.1.1.1.u.",
"u.1.1.1.^ l l c 7 i , . . . . . . . . . . . . . . . . #.1.1.1.u.",
"u.1.1.1.t.f.i.g.p.s.r.# . . . . . . . . . . . . . . . #.1.1.1.u.",
"u.1.1.1.3.q.8.q.8.8.>.+ . . . . . . . . . . . . . . . #.1.1.1.u.",
"u.1.1.1.r 5 5 2 5 5 * o . . . . . . . . . . . . . . . #.1.1.1.u.",
"u.1.1.1.) B c c N l , . . . . . . . . . . . . . . . . #.1.1.1.u.",
"u.1.1.1.) B c c J A , o . . . . . . . . . . . . . . . #.1.1.1.u.",
"u.1.1.1.) ' A N I B 1 . . . . . . . . . . . . . . . . #.1.1.1.u.",
"u.1.1.1.) E c T { I 7 o . . . . . . . . . . . . . . . #.1.1.1.u.",
"u.1.1.1.) E c s X.h.-.. . . . . . . . . . . . . . . . #.1.1.1.u.",
"u.1.1.1.) J A } [ 5.! o . . . . . . . . . . . . . . . #.1.1.1.u.",
"u.1.1.1.) E N ' ] %.e . . . . . . . . . . . . . . . . #.1.1.1.u.",
"u.1.1.1.) J l E 6.*.4.$ . . . . . . . . . . . . . . . #.1.1.1.u.",
"u.1.1.1.) E c J ..T ~ + . . . . . . . . . . . . . . . #.1.1.1.u.",
"u.1.1.1.) I 0 A *.w.&.. . . . . . . . . . . . . . . . #.1.1.1.u.",
"u.1.1.1.^ { E J J $.8 . . . . . . . . . . . . . . . . #.1.1.1.u.",
"u.1.1.1.^ N a c j p > o . . . . . . . . . . . . . . . #.1.1.1.u.",
"u.1.1.1.^ c l a N j > . . . . . . . . . . . . . . . . #.1.1.1.u.",
"u.1.1.1.t.s.i.f.p.s.r.# . . . . . . . . . . . . . . . #.1.1.1.u.",
"u.1.1.1.3.q.7.q.7.8.>.+ . . . . . . . . . . . . . . . #.1.1.1.u.",
"u.1.1.1.t 5 3 5 5 5 = . . . . . . . . . . . . . . . . #.1.1.1.u.",
"u.1.1.1.u 0 s p p p , . . . . . . . . . . . . . . . . #.1.1.1.u.",
"u.1.1.1.( A J A j p , . . . . . . . . . . . . . . . . #.1.1.1.u."
};
