/* XPM */
static char *_681433cdf0f4622a819808a2a62b7f3L318puW1fa409Hap[] = {
/* columns rows colors chars-per-pixel */
"32 32 181 2 ",
"   c None",
".  c black",
"X  c #020101",
"o  c #080502",
"O  c #0D0804",
"+  c #0B0B0B",
"@  c #0F0D0C",
"#  c #1D150C",
"$  c #1E150C",
"%  c #1D160F",
"&  c #171514",
"*  c #1E1E1E",
"=  c #21180F",
"-  c #22180F",
";  c #221910",
":  c #231A11",
">  c #241A11",
",  c #241B11",
"<  c #241B12",
"1  c #251D14",
"2  c #2C2116",
"3  c #2D231B",
"4  c #34271A",
"5  c #35271A",
"6  c #37281A",
"7  c #37291B",
"8  c #37291C",
"9  c #39291B",
"0  c #38291C",
"q  c #39291C",
"w  c #382A1C",
"e  c #392A1C",
"r  c #3A2A1C",
"t  c #3A2A1D",
"y  c #3B2B1D",
"u  c #3C2D1F",
"i  c #282624",
"p  c #2F2D2B",
"a  c #3D2E20",
"s  c #3F2F20",
"d  c #3F2F21",
"f  c #3F3021",
"g  c #332C30",
"h  c #373432",
"j  c #3F3332",
"k  c #402F22",
"l  c #403020",
"z  c #403021",
"x  c #403121",
"c  c #413121",
"v  c #413122",
"b  c #423122",
"n  c #413222",
"m  c #423222",
"M  c #433223",
"N  c #423323",
"B  c #433323",
"V  c #443223",
"C  c #443323",
"Z  c #433423",
"A  c #443424",
"S  c #453424",
"D  c #453524",
"F  c #453425",
"G  c #463424",
"H  c #463425",
"J  c #463525",
"K  c #453625",
"L  c #463625",
"P  c #473625",
"I  c #463526",
"U  c #473526",
"Y  c #463626",
"T  c #473626",
"R  c #473727",
"E  c #483625",
"W  c #483726",
"Q  c #493726",
"!  c #493826",
"~  c #483827",
"^  c #4A3827",
"/  c #453728",
"(  c #493828",
")  c #4A3928",
"_  c #4B3928",
"`  c #4A3929",
"'  c #4B3929",
"]  c #493A29",
"[  c #4B3A2B",
"{  c #4C3A29",
"}  c #4D3A29",
"|  c #4D3B29",
" . c #4D3A2A",
".. c #4C3B2A",
"X. c #4D3B2A",
"o. c #4E3C2A",
"O. c #4F3C2A",
"+. c #4F3D2B",
"@. c #4F3E2D",
"#. c #503E2D",
"$. c #513F2E",
"%. c #403731",
"&. c #483D33",
"*. c #52402D",
"=. c #53402E",
"-. c #53412E",
";. c #53412F",
":. c #53422E",
">. c #4F4134",
",. c #4F4236",
"<. c #554330",
"1. c #564431",
"2. c #574531",
"3. c #564432",
"4. c #524337",
"5. c #5A4834",
"6. c #5E4B37",
"7. c #514439",
"8. c #52443A",
"9. c #52453A",
"0. c #574638",
"q. c #56493D",
"w. c #584839",
"e. c #64513C",
"r. c #65523C",
"t. c #67533F",
"y. c #3D3743",
"u. c #3F3843",
"i. c #3F3844",
"p. c #433A41",
"a. c #423A44",
"s. c #403B4B",
"d. c #413D4F",
"f. c #484442",
"g. c #4D4742",
"h. c #4D4743",
"j. c #484747",
"k. c #4C4C4B",
"l. c #504C4A",
"z. c #56514B",
"x. c #5F564C",
"c. c #514A5F",
"v. c #595359",
"b. c #635140",
"n. c #625345",
"m. c #6A5B4C",
"M. c #67625C",
"N. c #68625D",
"B. c #575168",
"V. c #585169",
"C. c #58526A",
"Z. c #666462",
"A. c #676665",
"S. c #6A6766",
"D. c #6C676A",
"F. c #6D676A",
"G. c #6E6C6A",
"H. c #706760",
"J. c #766C66",
"K. c #766D66",
"L. c #776E67",
"P. c #786F68",
"I. c #797069",
"U. c #7A716A",
"Y. c #7B726B",
"T. c #7D746D",
"R. c #7B7B7B",
"E. c #7D7A78",
"W. c #807974",
"Q. c #7A7290",
"!. c #999088",
"~. c #9B928A",
"^. c #9E968E",
"/. c #9F968E",
"(. c #9F978F",
"). c #A19890",
"_. c #A39A92",
"`. c #A39B93",
"'. c #A49C94",
"]. c #A7A098",
"[. c #ABA8A8",
/* pixels */
"                                                                ",
"              Q.Q.Q.Q.Q.Q.Q.Q.Q.Q.Q.Q.Q.Q.Q.Q.Q.Q.              ",
"          Q.Q.C.C.C.C.C.C.C.C.C.C.C.C.C.C.C.C.C.C.Q.Q.          ",
"        Q.C.C.C.C.C.C.C.C.C.C.C.C.C.C.C.C.C.C.C.C.C.C.Q.        ",
"      Q.C.C.C.C.C.C.C.C.C.C.C.C.C.C.C.C.C.C.C.C.C.C.C.C.Q.      ",
"    Q.C.C.C.C.d.d.d.d.d.d.d.d.d.d.d.d.d.d.d.d.d.d.C.C.C.C.Q.    ",
"  Q.C.C.C.c.g 3 2 2 2 2 2 > o . . . . . . . . . d.d.C.C.C.C.Q.  ",
"Q.C.C.C.B.p.w.e.e.b.b.n.m.,.% . . . . . . . . . . d.d.C.C.C.C.Q.",
"Q.C.C.C.i.j / _ G ....W G $./ O . . . . . . . . . . d.d.C.C.C.Q.",
"Q.C.C.C.u.M G A G ....$.( s f ; X . . . . . . . . . . d.C.C.C.Q.",
"Q.C.C.C.u.M G M V W G k e s M = X . . . . . . . . . . d.C.C.C.Q.",
"Q.C.C.C.D.'.(.!.!.].`.~.!.(.(.M.& . . . . . . . . . . d.C.C.C.Q.",
"Q.C.C.C.v.T.Y.K.P.Y.Y.K.K.P.K.h.@ . . . . . . . . . . d.C.C.C.Q.",
"Q.C.C.C.y.7 e 9 9 9 e y e 8 4 # X . . . . . . . . . . d.C.C.C.Q.",
"Q.C.C.C.a._ ! G G f G G G K A ; X . . . . . . . . . . d.C.C.C.Q.",
"Q.C.C.C.a._ ! G G N ..o.;.G M ; X . . . . . . . . . . d.C.C.C.Q.",
"Q.C.C.C.p...;.;.R K o.o.;.G M ; X . . . . . . . . . . d.C.C.C.Q.",
"Q.C.C.C.a...#.! N G 2.:.;.o._ < X . . . . . . . . . . d.C.C.C.Q.",
"Q.C.C.C.a...#.! G f N o.E.[.E.1 X . . . . . . . . . . d.C.C.C.Q.",
"Q.C.C.C.p...#.! ! 5.2.o.x.G.z.> X . . . . . . . . . . d.C.C.C.Q.",
"Q.C.C.C.a...$._ ! ;.;.>.l.k.h.i X . . . . . . . . . . d.C.C.C.Q.",
"Q.C.C.C.p.....W K W 0.K.S.4.H.Z.1 . . . . . . . . . . d.C.C.C.Q.",
"Q.C.C.C.a...o.! V ! $.q.9._ 9.h + X X . . . . . . . . d.C.C.C.Q.",
"Q.C.C.C.p...o.M u ! o.9.S.R.S.p X X X X . . . . . . . d.C.C.C.Q.",
"Q.C.C.C.a.H <.6._ _ +._ &.f.%.= X . . . . . . . . . . d.C.C.C.Q.",
"Q.C.C.C.a.k G H s A G K G A l = X . . . . . . . . . . d.C.C.C.Q.",
"Q.C.C.C.y.M H H K A G G ..M f = X . . . . . . . . . . d.C.C.C.Q.",
"Q.C.C.C.D.).(.!.!.`.).!.!.(.(.M.& . . . . . . . . . . d.C.C.C.Q.",
"Q.C.C.C.v.Y.Y.K.K.Y.Y.K.K.L.J.h.@ . . . . . . . . . . d.C.C.C.Q.",
"Q.C.C.C.y.8 9 9 9 8 8 e e 8 4 # X . . . . . . . . . . d.C.C.C.Q.",
"Q.C.C.C.y.M u s A A M M H M M = X . . . . . . . . . . d.C.C.C.Q.",
"Q.C.C.B.i./ _ _ _ _ ! H V M k ; X . . . . . . . . . . d.C.C.C.Q."
};
