/* XPM */
static char *_bd8a2847beb4d41bd9e8e577e6eb754ByPVPJ62edwBFfLm[] = {
/* columns rows colors chars-per-pixel */
"32 32 198 2 ",
"   c None",
".  c black",
"X  c #010100",
"o  c #0C0804",
"O  c #0E0905",
"+  c #1A130B",
"@  c #271D13",
"#  c #271E15",
"$  c #2C2115",
"%  c #2D2115",
"&  c #2C2116",
"*  c #34271A",
"=  c #34271B",
"-  c #34281B",
";  c #36281A",
":  c #36281B",
">  c #37281C",
",  c #36291C",
"<  c #372A1C",
"1  c #372B1F",
"2  c #38281B",
"3  c #39291B",
"4  c #38291C",
"5  c #382A1C",
"6  c #392A1C",
"7  c #3A2A1C",
"8  c #3A2A1D",
"9  c #3A2B1D",
"0  c #3B2B1D",
"q  c #3B2C1E",
"w  c #3C2D1F",
"e  c #3D2D1F",
"r  c #3C2E1F",
"t  c #272727",
"y  c #2F2624",
"u  c #3A2E23",
"i  c #3E2E20",
"p  c #3E2F20",
"a  c #3F2F20",
"s  c #3F2E21",
"d  c #322E2A",
"f  c #332E2B",
"g  c #3D3338",
"h  c #38323C",
"j  c #3E3D3B",
"k  c #403021",
"l  c #413021",
"z  c #403121",
"x  c #403022",
"c  c #413122",
"v  c #423122",
"b  c #413222",
"n  c #423222",
"m  c #433222",
"M  c #433223",
"N  c #433323",
"B  c #443223",
"V  c #433324",
"C  c #443324",
"Z  c #453424",
"A  c #453524",
"S  c #453525",
"D  c #463424",
"F  c #463524",
"G  c #463425",
"H  c #463525",
"J  c #473625",
"K  c #463526",
"L  c #473526",
"P  c #463626",
"I  c #473626",
"U  c #473726",
"Y  c #473727",
"T  c #483625",
"R  c #483726",
"E  c #493726",
"W  c #483727",
"Q  c #483827",
"!  c #493827",
"~  c #4A3827",
"^  c #483729",
"/  c #493828",
"(  c #4A3828",
")  c #4A3928",
"_  c #4B3928",
"`  c #4A3929",
"'  c #4B3929",
"]  c #4B3A28",
"[  c #4C3A28",
"{  c #4D3B29",
"}  c #4C3B2A",
"|  c #4D3B2A",
" . c #4E3B2A",
".. c #4F3C2A",
"X. c #4E3C2B",
"o. c #4F3C2B",
"O. c #4F3D2B",
"+. c #4E3D2C",
"@. c #4F3D2C",
"#. c #503E2C",
"$. c #523F2C",
"%. c #523F2D",
"&. c #4D3E31",
"*. c #483D34",
"=. c #4B3D36",
"-. c #433F3B",
";. c #443F3B",
":. c #463F3C",
">. c #51402D",
",. c #52402D",
"<. c #52402E",
"1. c #52412E",
"2. c #53412E",
"3. c #52412F",
"4. c #53412F",
"5. c #55432F",
"6. c #4E4237",
"7. c #49433F",
"8. c #534230",
"9. c #534232",
"0. c #554230",
"q. c #554332",
"w. c #564536",
"e. c #594733",
"r. c #5A4834",
"t. c #5D4935",
"y. c #5C4936",
"u. c #5E4B37",
"i. c #52453A",
"p. c #51463D",
"a. c #54483A",
"s. c #614F3A",
"d. c #65523C",
"f. c #65523D",
"g. c #64513E",
"h. c #68543F",
"j. c #3E3846",
"k. c #3F3946",
"l. c #3F3947",
"z. c #413A47",
"x. c #403C4D",
"c. c #413D4F",
"v. c #484543",
"b. c #4A4946",
"n. c #4C4C4B",
"m. c gray30",
"M. c #574B41",
"N. c #5E4F44",
"B. c #504D4B",
"V. c #534E56",
"C. c #535353",
"Z. c #615242",
"A. c #625346",
"S. c #60574E",
"D. c #65584C",
"F. c #6B5B4C",
"G. c #64605C",
"H. c #6A615B",
"J. c #6F665F",
"K. c #554F65",
"L. c #585269",
"P. c #58526A",
"I. c #635D63",
"U. c #635E63",
"Y. c #6B6968",
"T. c #766D66",
"R. c #776E67",
"E. c #706E6C",
"W. c #786F68",
"Q. c #7B726B",
"!. c #7C736C",
"~. c #7D736C",
"^. c #7C746C",
"/. c #7E756E",
"(. c #747473",
"). c #7E7671",
"_. c #7E7A77",
"`. c #7C7C7C",
"'. c #837C77",
"]. c #8C857E",
"[. c #7A7290",
"{. c #8E8780",
"}. c #999088",
"|. c #9A9189",
" X c #9B928A",
".X c #9D948C",
"XX c #9E958D",
"oX c #989694",
"OX c #A29991",
"+X c #A29A92",
"@X c #A49B93",
"#X c #A49C94",
"$X c #A59D95",
"%X c #A69F97",
"&X c #A89F97",
"*X c #A9A098",
"=X c #A8A199",
"-X c #AEABAB",
/* pixels */
"                                                                ",
"              [.[.[.[.[.[.[.[.[.[.[.[.[.[.[.[.[.[.              ",
"          [.[.P.P.P.P.P.P.P.P.P.P.P.P.P.P.P.P.P.P.[.[.          ",
"        [.P.P.P.P.P.P.P.P.P.P.P.P.P.P.P.P.P.P.P.P.P.P.[.        ",
"      [.P.P.P.P.P.P.P.P.P.P.P.P.P.P.P.P.P.P.P.P.P.P.P.P.[.      ",
"    [.P.P.P.P.c.c.c.c.c.c.c.c.c.c.c.c.c.c.c.c.c.c.P.P.P.P.[.    ",
"  [.P.P.P.K.h y & & & & & & & @ o X X X X X X X c.c.P.P.P.P.[.  ",
"[.P.P.P.P.k.=.s.g.g.h.g.Z.A.F.a.# X X X X X X X X c.c.P.P.P.P.[.",
"[.P.P.P.c.g k ( ( E { ( ^ E F @.0.+ X X X X X X X X c.c.P.P.P.[.",
"[.P.P.P.k.k E k C F X.( { 0.^ x F = o X X X X X X X X c.P.P.P.[.",
"[.P.P.P.k.k F B C k F E F p 6 p ( = o X X X X X X X X c.P.P.P.[.",
"[.P.P.P.I.$X$X|.|.|.=X=X.X|.|..X&X{.-.X X X X X X X X c.P.P.P.[.",
"[.P.P.P.V.^.^.Q.T.T.Q.^.T.T.T.W.!.H.f X X X X X X X X c.P.P.P.[.",
"[.P.P.P.k.: 6 6 3 6 : 3 0 6 6 > 6 & o X X X X X X X X c.P.P.P.[.",
"[.P.P.P.z.( { F F F k V ( F F V ^ > o X X X X X X X X c.P.P.P.[.",
"[.P.P.P.z.E { F C F k ~ X.X.1.F Y > o X X X X X X X X c.P.P.P.[.",
"[.P.P.P.z.~ #.5.5.Y a ~ @.( 1.F Y > O X X X X X X X X c.P.P.P.[.",
"[.P.P.P.z.[ ,.X.~ A b 1.t.1.1.~ 1.> o X X X X X X X X c.P.P.P.[.",
"[.P.P.P.z.~ ,.[ Y A k r ( X.].-XoXu o X X X X X X X X c.P.P.P.[.",
"[.P.P.P.z.~ ,.X.~ ~ r.r.1.@.S.Y.G.u o X X X X X X X X c.P.P.P.[.",
"[.P.P.P.z.~ >.[ ~ ~ >.5.1.6.m.m.m.j o X X X X X X X X c.P.P.P.[.",
"[.P.P.P.z.~ ,.[ Y b ~ X.N.).J.@.D._.C.X X X X X X X X c.P.P.P.[.",
"[.P.P.P.z.~ >.[ T C A X.9.M.i.( w.7.t X X X X X X X X c.P.P.P.[.",
"[.P.P.P.z.~ >.~ n r C #.X.p.Y.`.(.b.o X X X X X X X X c.P.P.P.[.",
"[.P.P.P.z.k X.t.u.} F @.@.( *.v.:.> o X X X X X X X X c.P.P.P.[.",
"[.P.P.P.k.e F F F k M F ( k ~ k F = o X X X X X X X X c.P.P.P.[.",
"[.P.P.P.l.p F F F M M M V Y X.k F = o X X X X X X X X c.P.P.P.[.",
"[.P.P.P.I.+X#X X|.|.OX$X.X|.}..X&X{.-.X X X X X X X X c.P.P.P.[.",
"[.P.P.P.V.!.!.T.T.T.Q.!.W.T.T.W.!.H.f X X X X X X X X c.P.P.P.[.",
"[.P.P.P.j.= 6 6 6 6 6 > 6 6 6 4 6 & o X X X X X X X X c.P.P.P.[.",
"[.P.P.P.k.p x q M M M M M M F x F = O X X X X X X X X c.P.P.P.[.",
"[.P.P.P.l.C #.( ( ( ( } F M C x F = O X X X X X X X X c.P.P.P.[."
};
