/* XPM */
static char *_463070d69454c7ace32ed0c1eded3a2R2ujk81M76mlQTon[] = {
/* columns rows colors chars-per-pixel */
"32 32 163 2 ",
"   c None",
".  c black",
"X  c #241A11",
"o  c #241B11",
"O  c #261C12",
"+  c #281D13",
"@  c #291F14",
"#  c #2B2015",
"$  c #2B2016",
"%  c #2C2116",
"&  c #2D2216",
"*  c #2D2217",
"=  c #2E2217",
"-  c #2E2317",
";  c #2F2318",
":  c #302418",
">  c #312418",
",  c #312519",
"<  c #322518",
"1  c #322519",
"2  c #322619",
"3  c #32261A",
"4  c #33261A",
"5  c #35271A",
"6  c #34271B",
"7  c #36281C",
"8  c #36291C",
"9  c #37291C",
"0  c #372A1D",
"q  c #38291B",
"w  c #382A1D",
"e  c #382B1D",
"r  c #392B1D",
"t  c #3A2A1C",
"y  c #3A2B1C",
"u  c #3B2B1C",
"i  c #3B2B1D",
"p  c #3D2C1E",
"a  c #3C2D1F",
"s  c #3E2D1E",
"d  c #3D2E1F",
"f  c #362A20",
"g  c #3A2D20",
"h  c #3F2F20",
"j  c #3F3122",
"k  c #403021",
"l  c #423122",
"z  c #413223",
"x  c #423222",
"c  c #443424",
"v  c #463425",
"b  c #463525",
"n  c #473525",
"m  c #473625",
"M  c #4B3827",
"N  c #4B3928",
"B  c #4B3A28",
"V  c #4B3A29",
"C  c #483A2A",
"Z  c #493A2A",
"A  c #4C3928",
"S  c #4C3A28",
"D  c #4D3A29",
"F  c #4C3B29",
"G  c #4E3B29",
"H  c #4E3B2A",
"J  c #4F3C2A",
"K  c #4D3C2C",
"L  c #503D2B",
"P  c #513E2B",
"I  c #513E2C",
"U  c #523F2C",
"Y  c #523F2D",
"T  c #53412E",
"R  c #54402E",
"E  c #54412E",
"W  c #54412F",
"Q  c #54422F",
"!  c #594632",
"~  c #5A4633",
"^  c #5C4833",
"/  c #5B4835",
"(  c #5D4834",
")  c #5E4934",
"_  c #5F4B37",
"`  c #51443B",
"'  c #5E4C39",
"]  c #604B36",
"[  c #604C36",
"{  c #614C36",
"}  c #614C37",
"|  c #634E38",
" . c #624E3B",
".. c #644F3A",
"X. c #63503A",
"o. c #67523B",
"O. c #66523E",
"+. c #69543D",
"@. c #69553F",
"#. c #3E3948",
"$. c #3E3A49",
"%. c #3F3B4C",
"&. c #403C4E",
"*. c #413D4F",
"=. c #433F50",
"-. c gray28",
";. c #484543",
":. c #4C4C4C",
">. c #5F5244",
",. c #464252",
"<. c #515151",
"1. c #575655",
"2. c #5F5E5D",
"3. c #6B5742",
"4. c #6E5941",
"5. c #6F5944",
"6. c #755E47",
"7. c #635C56",
"8. c #645C56",
"9. c #77614A",
"0. c #7A644B",
"q. c #766656",
"w. c #776656",
"e. c #796858",
"r. c #58526A",
"t. c #606060",
"y. c #676665",
"u. c #6D6B6A",
"i. c #756C65",
"p. c #766D66",
"a. c #776E67",
"s. c #797068",
"d. c #7D736C",
"f. c #7F756D",
"g. c #727272",
"h. c #767676",
"j. c gray49",
"k. c gray50",
"l. c #81776F",
"z. c #827870",
"x. c #817973",
"c. c #827A73",
"v. c #847C74",
"b. c #7A7290",
"n. c #999088",
"m. c #9B928A",
"M. c #9C938B",
"N. c #9F978F",
"B. c #9D9D9D",
"V. c #A09890",
"C. c #A49A92",
"Z. c #A9A199",
"A. c #ABA29A",
"S. c #AAA49C",
"D. c #ABA49C",
"F. c #ABA59D",
"G. c #AEA59D",
"H. c #AEA69E",
"J. c #AEA79F",
"K. c #ADACAB",
"L. c #B2ADA5",
"P. c #B4B4B3",
"I. c #B9B9B9",
/* pixels */
"                                                                ",
"              b.b.b.b.b.b.b.b.b.b.b.b.b.b.b.b.b.b.              ",
"          b.b.r.r.r.r.r.r.r.r.r.r.r.r.r.r.r.r.r.r.b.b.          ",
"        b.r.r.r.r.r.r.r.r.r.r.r.r.r.r.r.r.r.r.r.r.r.r.b.        ",
"      b.r.r.r.r.r.r.r.r.r.r.r.r.r.r.r.r.r.r.r.r.r.r.r.r.b.      ",
"    b.r.r.r.r.*.*.*.*.*.*.*.*.*.*.*.=.%.=.%.%.=.=.r.r.r.r.b.    ",
"  b.r.r.r.r.*.#.# # % % % % % % % # # ; * * # . %.=.r.r.r.r.b.  ",
"b.r.r.r.r.=.#.% V 0.3.V 6.' X.9.V >.q.f q.q.* O . %.=.r.r.r.r.b.",
"b.r.r.r.*.#.3 n q Y R s M d Q T 7 n { 6 % { w 6.O . =.%.r.r.r.b.",
"b.r.r.r.*.: F F 9 F l h M d Q T 7 b { | % n ; A b X . %.r.r.r.b.",
"b.r.r.r.*.: F A 9 V l s M d m T w n A ; % A 3 L b X . =.r.r.r.b.",
"b.r.r.r.,.m.H.F.n.n.n.n.n.n.A.L.V.n.n.n.n.n.m.G.S.x.. =.r.r.r.b.",
"b.r.r.r.=.a.z.v.a.a.a.a.i.a.d.z.s.a.a.a.p.p.a.l.f.7.. %.r.r.r.b.",
"b.r.r.r.*.% s u : s 7 7 s 2 7 3 q s s % s g 1 p g X . =.r.r.r.b.",
"b.r.r.r.*.6 { A 7 G b s G k l 7 F F L : A L 1 F V X . =.r.r.r.b.",
"b.r.r.r.&.6 { A 7 G b s L k x u ~ L L : | L 1 F V X . =.r.r.r.b.",
"b.r.r.r.%.6 { S 9 ( O.d G j l w ~ L L 3 | T ; S B o . *.r.r.r.b.",
"b.r.r.r.%.7 { S z ) b j G l l w +.o.R : { T 7 _ M o . *.r.r.r.b.",
"b.r.r.r.*.6 { S z ( b s L l l w # ) R : | I.I.K.B o . *.r.r.r.b.",
"b.r.r.r.%.6 { A z ( b s G j X.+.j ) R : | g.h.u.B o . *.r.r.r.b.",
"b.r.r.r.%.6 | A z _ m d L l T | j ) R 3 2.-.-.:.1.X . *.r.r.r.b.",
"b.r.r.r.%.6 ' F z ( l d n d l ( j ^ G P.R V 7 { a.B.. *.r.r.r.b.",
"b.r.r.r.%.9 { B x ^ l d V d l ^ j ^ G 2.T M 7 _ ` <.. *.r.r.r.b.",
"b.r.r.r.%.7 { F j ^ l # h d l ) j ^ G ; g.k.k.j.y.X . *.r.r.r.b.",
"b.r.r.r.=.; F b l X.6.| j g l ) j ^ L % L -.-.;.b X . *.r.r.r.b.",
"b.r.r.r.%.; F n q A V l h s l M 7 ) q % T M 3 A b o . *.r.r.r.b.",
"b.r.r.r.%.3 F n 7 A m s V s l n 7 F 6 L L A 3 A b o . *.r.r.r.b.",
"b.r.r.r.,.n.A.H.n.n.n.n.n.n.C.L.N.n.n.n.n.n.n.A.A.c.. *.r.r.r.b.",
"b.r.r.r.=.a.l.f.a.a.a.a.a.i.d.z.s.a.i.a.a.a.a.l.f.8.. *.r.r.r.b.",
"b.r.r.r.%.; s w : d 6 < s 7 7 s : d s # s s % s d o . *.r.r.r.b.",
"b.r.r.r.&.1 F n # d l s M d l M 7 n M % V M ; M m X . *.r.r.r.b.",
"b.r.r.r.&.1 F L / e l F ~ d l ) l b A 3 M M 3 M m X . *.r.r.r.b."
};
