/* XPM */
static char *_daab41a58da47468c298b8fb435fd83E9nICozfkONgpQNG[] = {
/* columns rows colors chars-per-pixel */
"32 32 240 2 ",
"   c None",
".  c black",
"X  c #010100",
"o  c #040201",
"O  c #140D07",
"+  c #140E07",
"@  c #1C140C",
"#  c #1E160D",
"$  c #231A10",
"%  c #2B2116",
"&  c #2C2116",
"*  c #2D2116",
"=  c #2F2216",
"-  c #2E2316",
";  c #2E2317",
":  c #33251A",
">  c #33271A",
",  c #342619",
"<  c #342719",
"1  c #34261A",
"2  c #36281A",
"3  c #36281B",
"4  c #37291B",
"5  c #37291C",
"6  c #372A1C",
"7  c #38291B",
"8  c #39291B",
"9  c #382A1B",
"0  c #38291C",
"q  c #392A1C",
"w  c #382A1D",
"e  c #392A1D",
"r  c #3B2A1D",
"t  c #3A2B1D",
"y  c #3B2B1D",
"u  c #392A1E",
"i  c #392B1E",
"p  c #3B2B1E",
"a  c #3A2C1E",
"s  c #3B2C1E",
"d  c #3B2D1E",
"f  c #3B2C1F",
"g  c #3C2C1D",
"h  c #3C2D1F",
"j  c #3E2D1E",
"k  c #3D2F1F",
"l  c #372C23",
"z  c #3B2E21",
"x  c #3C2E20",
"c  c #3E2F20",
"v  c #3F2F20",
"b  c #3E2F21",
"n  c #3F2F21",
"m  c #3E3021",
"M  c #3F3021",
"N  c #3D3125",
"B  c #362F36",
"V  c gray20",
"C  c #3F3A36",
"Z  c #3B343C",
"A  c #403121",
"S  c #413122",
"D  c #423122",
"F  c #423222",
"G  c #423223",
"H  c #433223",
"J  c #433323",
"K  c #443223",
"L  c #443323",
"P  c #453323",
"I  c #443423",
"U  c #453423",
"Y  c #423224",
"T  c #443324",
"R  c #453324",
"E  c #443424",
"W  c #453424",
"Q  c #453524",
"!  c #453425",
"~  c #453525",
"^  c #463425",
"/  c #463525",
"(  c #473525",
")  c #453625",
"_  c #463625",
"`  c #473625",
"'  c #443526",
"]  c #473526",
"[  c #463626",
"{  c #473626",
"}  c #473727",
"|  c #483625",
" . c #493625",
".. c #483626",
"X. c #483726",
"o. c #493726",
"O. c #493727",
"+. c #4A3726",
"@. c #4A3727",
"#. c #483827",
"$. c #493827",
"%. c #4A3827",
"&. c #463729",
"*. c #493828",
"=. c #4A3828",
"-. c #4B3828",
";. c #4A3928",
":. c #4B3928",
">. c #4A3929",
",. c #4B3929",
"<. c #4B3A28",
"1. c #493A2B",
"2. c #4C3A28",
"3. c #4D3B28",
"4. c #4C3A29",
"5. c #4D3B2A",
"6. c #4D3C2A",
"7. c #4E3C2A",
"8. c #4E3C2B",
"9. c #4F3C2B",
"0. c #4F3D2B",
"q. c #4D3C2C",
"w. c #513E2C",
"e. c #513F2C",
"r. c #513F2D",
"t. c #523F2C",
"y. c #533F2C",
"u. c #403B36",
"i. c #463E38",
"p. c #52402D",
"a. c #52402E",
"s. c #54402D",
"d. c #54412E",
"f. c #54432F",
"g. c #55432F",
"h. c #42403E",
"j. c #544230",
"k. c #554330",
"l. c #574633",
"z. c #584430",
"x. c #594430",
"c. c #594530",
"v. c #584431",
"b. c #5A4733",
"n. c #584634",
"m. c #5A4734",
"M. c #5A4834",
"N. c #5A4835",
"B. c #5B4935",
"V. c #5B4936",
"C. c #5C4936",
"Z. c #5E4A36",
"A. c #54463B",
"S. c #55483C",
"D. c #594838",
"F. c #5C4C3C",
"G. c #604B37",
"H. c #614D38",
"J. c #624F3A",
"K. c #65523C",
"L. c #67523D",
"P. c #65523E",
"I. c #67543E",
"U. c #68543F",
"Y. c #3D3743",
"T. c #3E3A4A",
"R. c #3F3A4B",
"E. c #3F3B4B",
"W. c #403B4B",
"Q. c #403B4C",
"!. c #413D4E",
"~. c #413D4F",
"^. c #474645",
"/. c #494643",
"(. c #4C4541",
"). c #494949",
"_. c #4D4D4A",
"`. c #4C4C4C",
"'. c gray30",
"]. c #534E4A",
"[. c #554F4B",
"{. c #5B544F",
"}. c #4B4652",
"|. c #4B4653",
" X c #534E59",
".X c #534F59",
"XX c #585756",
"oX c #695640",
"OX c #6A5B4C",
"+X c #6E5E4F",
"@X c #6A5D51",
"#X c #615C58",
"$X c #6E655E",
"%X c #6E655F",
"&X c #716151",
"*X c #585269",
"=X c #58526A",
"-X c #676666",
";X c #676767",
":X c #736A63",
">X c #766D66",
",X c #776E67",
"<X c #706F6C",
"1X c #797069",
"2X c #7A716A",
"3X c #7B726B",
"4X c #7D746C",
"5X c #7D746D",
"6X c #7E746D",
"7X c #7F756D",
"8X c #727271",
"9X c #737372",
"0X c gray49",
"qX c #7E7E7E",
"wX c #817971",
"eX c #807D79",
"rX c #7A7290",
"tX c #928A83",
"yX c #938C84",
"uX c #92908D",
"iX c #999088",
"pX c #9A9189",
"aX c #9B928A",
"sX c #9C938B",
"dX c #9F968E",
"fX c #9F978F",
"gX c #999593",
"hX c #A0978F",
"jX c #A19890",
"kX c #A19991",
"lX c #A29991",
"zX c #A29A92",
"xX c #A69E96",
"cX c #A69F97",
"vX c #A8A199",
"bX c #A9A199",
"nX c #AAA39B",
"mX c #ACA49C",
"MX c #B0AEAD",
"NX c #B5B3B3",
/* pixels */
"                                                                ",
"              rXrXrXrXrXrXrXrXrXrXrXrXrXrXrXrXrXrX              ",
"          rXrX=X=X=X=X=X=X=X=X=X=X=X=X=X=X=X=X=X=XrXrX          ",
"        rX=X=X=X=X=X=X=X=X=X=X=X=X=X=X=X=X=X=X=X=X=X=XrX        ",
"      rX=X=X=X=X=X=X=X=X=X=X=X=X=X=X=X=X=X=X=X=X=X=X=X=XrX      ",
"    rX=X=X=X=X~.~.~.~.~.~.~.~.~.~.~.~.~.~.~.~.~.~.=X=X=X=XrX    ",
"  rX=X=X=X=XT.B * % % * % * * * * % % $ o X X X ~.~.=X=X=X=XrX  ",
"rX=X=X=X=XQ.Z 1.U.U.J.P.I.P.F.OXA.+X&Xl # X X X X ~.~.=X=X=X=XrX",
"rX=X=X=X~.Y.a P %.6.` ` 5.1.P d.` ; c.q.k.@ X X X X ~.~.=X=X=XrX",
"rX=X=X=XT.t 1.U H P H ` 5.5.T d.G.M T g &.5 O X X X X ~.=X=X=XrX",
"rX=X=X=XW.t 1.U H T H P ` ` P ` z $ P g 1.7 O X X X X ~.=X=X=XrX",
"rX=X=X=X.XhXmXzXiXiXiXaXxXbXzXaXaXsXaXhXcXtX].X X X X ~.=X=X=XrX",
"rX=X=X=X|.2XwX5X>X>X>X>X3X5X2X>X,X,X,X1X5X$Xu.X X X X ~.=X=X=XrX",
"rX=X=X=XT.: g 8 4 8 8 8 4 4 y g 1 y y 1 a * + X X X X ~.=X=X=XrX",
"rX=X=X=XQ.H k.U P ` T U M H } 5.x O.3.g O.a O X X X X ~.=X=X=XrX",
"rX=X=X=XW.H c.U I ` T ` M ` e.e.A m.t.x O.a O X X X X ~.=X=X=XrX",
"rX=X=X=XE.H g.%.d.B.6.I M ` t.p.x c.t.x %.a O X X X X ~.=X=X=XrX",
"rX=X=X=XE.I M.<.6.1.E ` H 5.J.C.T m.t.` g.a O X X X X ~.=X=X=XrX",
"rX=X=X=XW.H x.<.t.5.` I k t ` p.H D.MXNXuXN O X X X X ~.=X=X=XrX",
"rX=X=X=XE.H x.<.e.1.U %.M.B.g.g.A m.<X8X#Xz O X X X X ~.=X=X=XrX",
"rX=X=X=XW.H x.<.6.3.P O.p.d.p.d.A XX`.).`.W.O X X X X ~.=X=X=XrX",
"rX=X=X=XE.H x.<.5.%.H P O.6.p.d.gX>X5.&.OXeX;XX X X X ~.=X=X=XrX",
"rX=X=X=XW.H x.3.5.O.H H O.6.e.d.{.S.@.T B.(.V X X X X ~.=X=X=XrX",
"rX=X=X=XT.H x.1.6.` t g ` 5.t.y.g -X0XqX9X_.+ X X X X ~.=X=X=XrX",
"rX=X=X=XE.t } 1.C.L.c.` O.5.e.d.g 3./.^.i.5 O X X X X ~.=X=X=XrX",
"rX=X=X=XE.8 O.P P 1.T x H Y 1.%.4 1.O.t ` 4 O X X X X ~.=X=X=XrX",
"rX=X=X=XE.8 O.H U ` P P H H U M ` t.O.t ` 5 O X X X X ~.=X=X=XrX",
"rX=X=X=X.XdXbXzXaXyXaXaXzXxXdXaXiXaXaXdXvXyX[.X X X X ~.=X=X=XrX",
"rX=X=X=X|.2X5X2X>X>X>X>X3X4X1X>X>X>X>X2X5X:XC X X X X ~.=X=X=XrX",
"rX=X=X=XT.: g 8 8 8 8 8 t t 1 t : t t : t * O X X X X ~.=X=X=XrX",
"rX=X=X=XT.t O.g 8 v H P H H A O.t ` O.t ` 5 O X X X X ~.=X=X=XrX",
"rX=X=X=X~.a q.p.1.T 5.1.%.5.O.O.x ` O.g ` 4 O X X X X ~.=X=X=XrX"
};
