/* XPM */
static char *_ed67717b689431e977b2c16fca6de814pZniYBkC9z941mx[] = {
/* columns rows colors chars-per-pixel */
"32 32 215 2 ",
"   c None",
".  c black",
"X  c #020101",
"o  c #060402",
"O  c #231A11",
"+  c #241A11",
"@  c #281E13",
"#  c #291F14",
"$  c #2A2015",
"%  c #2B2015",
"&  c #2B2116",
"*  c #2C2116",
"=  c #2D2116",
"-  c #2D2217",
";  c #2F2318",
":  c #2F2418",
">  c #302418",
",  c #322519",
"<  c #33261A",
"1  c #32271B",
"2  c #352719",
"3  c #34271A",
"4  c #35271A",
"5  c #35281B",
"6  c #36281A",
"7  c #37281B",
"8  c #36291B",
"9  c #37291B",
"0  c #36291C",
"q  c #3A2A1B",
"w  c #39291C",
"e  c #392A1D",
"r  c #3A2B1C",
"t  c #3B2B1D",
"y  c #392B1E",
"u  c #3A2C1E",
"i  c #3B2D1F",
"p  c #3C2C1D",
"a  c #3D2C1D",
"s  c #3D2C1E",
"d  c #3C2D1E",
"f  c #3C2C1F",
"g  c #3C2D1F",
"h  c #3E2D1E",
"j  c #3D2E1F",
"k  c #3D2E20",
"l  c #3E2E20",
"z  c #3F2F20",
"x  c #3E3021",
"c  c #3F3021",
"v  c #3C3126",
"b  c #403021",
"n  c #413121",
"m  c #403022",
"M  c #413122",
"N  c #423122",
"B  c #423223",
"V  c #433223",
"C  c #433323",
"Z  c #413224",
"A  c #423324",
"S  c #443324",
"D  c #453324",
"F  c #433424",
"G  c #443424",
"H  c #453524",
"J  c #453425",
"K  c #453525",
"L  c #463424",
"P  c #463425",
"I  c #463525",
"U  c #473525",
"Y  c #473625",
"T  c #463526",
"R  c #463626",
"E  c #493726",
"W  c #483827",
"Q  c #493827",
"!  c #4A3827",
"~  c #4B3827",
"^  c #4A3927",
"/  c #4A3928",
"(  c #4B3928",
")  c #4B3A28",
"_  c #4B3A29",
"`  c #4C3928",
"'  c #4C3A28",
"]  c #4C3B28",
"[  c #4C3A29",
"{  c #4D3A29",
"}  c #4D3B29",
"|  c #4D3C2A",
" . c #4F3C2A",
".. c #4E3D2A",
"X. c #4E3C2B",
"o. c #4C3C2C",
"O. c #4F3D2C",
"+. c #503D2A",
"@. c #503D2B",
"#. c #503E2C",
"$. c #513E2C",
"%. c #513F2C",
"&. c #513F2D",
"*. c #523F2C",
"=. c #52402D",
"-. c #52402F",
";. c #53412F",
":. c #54402D",
">. c #54412E",
",. c #55412E",
"<. c #54412F",
"1. c #56432F",
"2. c #4F4136",
"3. c #504132",
"4. c #544330",
"5. c #554331",
"6. c #574330",
"7. c #574433",
"8. c #574634",
"9. c #584430",
"0. c #594531",
"q. c #584633",
"w. c #5A4633",
"e. c #5A4733",
"r. c #5B4733",
"t. c #5B4936",
"y. c #5C4934",
"u. c #5D4934",
"i. c #5D4A34",
"p. c #5F4A34",
"a. c #5D4A36",
"s. c #51443B",
"d. c #55483C",
"f. c #574A3C",
"g. c #624D37",
"h. c #614D39",
"j. c #604E39",
"k. c #604E3A",
"l. c #624F3B",
"z. c #66523C",
"x. c #67523D",
"c. c #68533D",
"v. c #6B563F",
"b. c #3B3643",
"n. c #3C3745",
"m. c #3E3A49",
"M. c #403C4D",
"N. c #413D4E",
"B. c #413D4F",
"V. c gray28",
"C. c #484543",
"Z. c #494643",
"A. c #4C4C4C",
"S. c #454151",
"D. c #4A4554",
"F. c #505050",
"G. c #575655",
"H. c #5B5653",
"J. c #585756",
"K. c #6B5641",
"L. c #6C5741",
"P. c #6E5943",
"I. c #6E5E4F",
"U. c #625B55",
"Y. c #635B55",
"T. c #766149",
"R. c #706051",
"E. c #776656",
"W. c #58526A",
"Q. c #676666",
"!. c #686766",
"~. c #6E6C6B",
"^. c #736A63",
"/. c #746B64",
"(. c #766D66",
"). c #776E67",
"_. c #706D6A",
"`. c #786F68",
"'. c #797069",
"]. c #7C736B",
"[. c #7D746C",
"{. c #7F756D",
"}. c #7F756E",
"|. c gray46",
" X c gray49",
".X c gray50",
"XX c #80766E",
"oX c #81776F",
"OX c #807871",
"+X c #827971",
"@X c #817972",
"#X c #827A72",
"$X c #7A7290",
"%X c #999088",
"&X c #9B928A",
"*X c #9B938B",
"=X c #9C938B",
"-X c #9D948C",
";X c #9E958D",
":X c gray61",
">X c #A19A92",
",X c #A69E96",
"<X c #A09E9C",
"1X c #A8A199",
"2X c #A9A199",
"3X c #AAA199",
"4X c #A8A29A",
"5X c #ABA29A",
"6X c #ABA49C",
"7X c #ADA49C",
"8X c #AEA69E",
"9X c #AEA9A1",
"0X c #AEACAB",
"qX c #AEADAC",
"wX c #B9B9B9",
/* pixels */
"                                                                ",
"              $X$X$X$X$X$X$X$X$X$X$X$X$X$X$X$X$X$X              ",
"          $X$XW.W.W.W.W.W.W.W.W.W.W.W.W.W.W.W.W.W.$X$X          ",
"        $XW.W.W.W.W.W.W.W.W.W.W.W.W.W.W.W.W.W.W.W.W.W.$X        ",
"      $XW.W.W.W.W.W.W.W.W.W.W.W.W.W.W.W.W.W.W.W.W.W.W.W.$X      ",
"    $XW.W.W.W.B.B.m.B.B.B.B.B.B.B.B.m.m.B.B.m.m.B.W.W.W.W.$X    ",
"  $XW.W.W.W.B.b.- & - - & = = = ; - - - ; & o o B.B.W.W.W.W.$X  ",
"$XW.W.W.W.B.n.1 8.T.k.p.P.a.P.k.f.R.2.I.E.v # o X B.B.W.W.W.W.$X",
"$XW.W.W.M.m.4 D b ;.{ C D Q ,.G C 6.L ; w.A L.# X X B.B.W.W.W.$X",
"$XW.W.W.M.1 { E h E b C D E ,.G z w.g.b E 4 ~ G O X . B.W.W.W.$X",
"$XW.W.W.B.1 { Q h E b C H C { H C E y # L 8 +.L O . . B.W.W.W.$X",
"$XW.W.W.D.-X8X4X%X%X%X%X%X>X9X4X&X%X%X%X%X=X8X,X X. . B.W.W.W.$X",
"$XW.W.W.S.`.+X+X(.(.(.(.(.`.}.].).(.(.(.(.(.XXXXU.. . B.W.W.W.$X",
"$XW.W.W.B.; h q 4 y 4 y q q 4 8 a h 1 y a 1 a y O . . B.W.W.W.$X",
"$XW.W.W.m.y p.E h { C G E z h C { O.a G +.0 _ _ O . . B.W.W.W.$X",
"$XW.W.W.B.y p.E h _ C C E C h o.;.@.z r.,.0 Q _ O . . B.W.W.W.$X",
"$XW.W.W.M.y p.Q C k.t.C G C h ..,.+.z w.=.8 ] ] O X . B.W.W.W.$X",
"$XW.W.W.M.y p.Q E 9.C H Q c z 4.x.w.z w.=.r i.] O . . S.W.W.W.$X",
"$XW.W.W.M.y p.Q Q w.C C Q C h 1 ..4.k w.0XwXqX3.O . . m.W.W.W.$X",
"$XW.W.W.M.y g.Q Q ,.C D E ;.z.5.;.4.z q.~.|.~.=.O . . S.W.W.W.$X",
"$XW.W.W.m.r p.Q Q 9.C H E _ w.;.;.,.h J.A.V.A.G.O . . B.W.W.W.$X",
"$XW.W.W.B.y p._ Q 1.z C L z @...=.,.<X^.{ r i.^.:X. . B.W.W.W.$X",
"$XW.W.W.B.y g.Q E 6.C C L z @.o.=.:.H.d._ p i.8.F.. . B.W.W.W.$X",
"$XW.W.W.m.y p.Q Q ,.y 1 z z ;.O.=.:.r !. X$X X!.O . . B.W.W.W.$X",
"$XW.W.W.M., ~ H _ x.K.6.z z @.O.;.,.y _ Z.V.Z.G + . . B.W.W.W.$X",
"$XW.W.W.M.1 ~ D a { _ C z z T A @.G > { ` 5 ( L + . . B.W.W.W.$X",
"$XW.W.W.M.4 ~ G h ( C D L l T l G z ( @.` 5 { E + . . B.W.W.W.$X",
"$XW.W.W.D.-X5X4X%X%X%X%X%X&X5X,X&X&X%X%X%X&X,X4X+X. . B.W.W.W.$X",
"$XW.W.W.S.).XX}.(.(.(.(.).`.}.].(.(.(.(.).`.XXXXY.. . B.W.W.W.$X",
"$XW.W.W.M.; h q 0 r 5 y a 4 y 4 0 h 1 y a > a y + . . B.W.W.W.$X",
"$XW.W.W.m.4 ~ D ; r z L L z E C C E y D E 5 { G + . . B.W.W.W.$X",
"$XW.W.W.B.1 { ;.5.z T @.O.z @.{ A E q E ( 5 ( G + . . B.W.W.W.$X"
};
