/* XPM */
static char *_c47fefe1c5449c5b8c0f9a434c690e5pnrz1A6Ivg3WaYi6[] = {
/* columns rows colors chars-per-pixel */
"32 32 230 2 ",
"   c None",
".  c black",
"X  c #010100",
"o  c #050301",
"O  c #1B140C",
"+  c #1C140C",
"@  c #231A11",
"#  c #241A11",
"$  c #271D13",
"%  c #2B2016",
"&  c #2B2116",
"*  c #2C2116",
"=  c #2D2116",
"-  c #2D2217",
";  c #312419",
":  c #322519",
">  c #312619",
",  c #332619",
"<  c #33261A",
"1  c #352719",
"2  c #35271A",
"3  c #35281B",
"4  c #37291A",
"5  c #36281B",
"6  c #37291B",
"7  c #36281C",
"8  c #36291C",
"9  c #38281B",
"0  c #38291B",
"q  c #39291B",
"w  c #38291C",
"e  c #392A1C",
"r  c #382A1D",
"t  c #392A1D",
"y  c #392B1D",
"u  c #3A2A1C",
"i  c #3A2B1C",
"p  c #3B2B1D",
"a  c #392B1E",
"s  c #3A2B1E",
"d  c #3C2B1D",
"f  c #3A2C1D",
"g  c #3C2C1E",
"h  c #3D2D1E",
"j  c #3E2D1E",
"k  c #3C2E1F",
"l  c #3E2E1F",
"z  c #3D2E20",
"x  c #3E2F20",
"c  c #3F2F20",
"v  c #3E2F21",
"b  c #3F2F21",
"n  c #392E25",
"m  c #3F3020",
"M  c #3E3021",
"N  c #3F3021",
"B  c #3F3121",
"V  c #3D3023",
"C  c #3F3022",
"Z  c #38323C",
"A  c #403021",
"S  c #403022",
"D  c #403122",
"F  c #413122",
"G  c #423122",
"H  c #423222",
"J  c #433222",
"K  c #423223",
"L  c #433223",
"P  c #433323",
"I  c #443223",
"U  c #443423",
"Y  c #453324",
"T  c #443424",
"R  c #453525",
"E  c #463424",
"W  c #463524",
"Q  c #463525",
"!  c #473525",
"~  c #473625",
"^  c #473725",
"/  c #443527",
"(  c #463626",
")  c #473626",
"_  c #483626",
"`  c #493726",
"'  c #483727",
"]  c #493727",
"[  c #4A3726",
"{  c #493827",
"}  c #493927",
"|  c #4A3827",
" . c #4B3827",
".. c #4A3927",
"X. c #47392C",
"o. c #483829",
"O. c #4A3828",
"+. c #4A3928",
"@. c #4B3928",
"#. c #4B3A28",
"$. c #4B3A2A",
"%. c #4C3928",
"&. c #4C3A28",
"*. c #4C3A29",
"=. c #4D3B29",
"-. c #4C3A2A",
";. c #4D3B2A",
":. c #4E3B2A",
">. c #4F3C29",
",. c #4D3C2A",
"<. c #4E3C2A",
"1. c #4F3D2A",
"2. c #4F3D2B",
"3. c #4D3C2C",
"4. c #4E3D2C",
"5. c #503E2C",
"6. c #513E2C",
"7. c #503E2D",
"8. c #513F2D",
"9. c #523F2C",
"0. c #52402D",
"q. c #53402D",
"w. c #52402E",
"e. c #52412E",
"r. c #52412F",
"t. c #54402D",
"y. c #54412F",
"u. c #54422F",
"i. c #56422F",
"p. c #56432F",
"a. c #48423E",
"s. c #554230",
"d. c #564330",
"f. c #564430",
"g. c #594532",
"h. c #5A4732",
"j. c #5A4733",
"k. c #5C4732",
"l. c #594834",
"z. c #5B4835",
"x. c #5D4935",
"c. c #524439",
"v. c #55483C",
"b. c #5F4C38",
"n. c #594B3C",
"m. c #614C37",
"M. c #604D38",
"N. c #604D39",
"B. c #624E39",
"V. c #634F3B",
"C. c #62503B",
"Z. c #65503B",
"A. c #65513C",
"S. c #64513D",
"D. c #65523C",
"F. c #69543F",
"G. c #3B3540",
"H. c #3E3846",
"J. c #403B4C",
"K. c #403C4E",
"L. c #413D4F",
"P. c #414141",
"I. c #474746",
"U. c #494643",
"Y. c #484848",
"T. c #4C4B49",
"R. c #4C4C4C",
"E. c #4E4E4E",
"W. c #504841",
"Q. c #514A45",
"!. c #514B46",
"~. c #484351",
"^. c #484352",
"/. c #4E4956",
"(. c #4E4A56",
"). c #5B5551",
"_. c #585756",
"`. c #5B5A58",
"'. c #625241",
"]. c #695540",
"[. c #6F5B44",
"{. c #6D5D4E",
"}. c #6E5E4F",
"|. c #69635D",
" X c #6A645E",
".X c #746454",
"XX c #58526A",
"oX c #676666",
"OX c #686562",
"+X c #736A63",
"@X c #766D66",
"#X c #786E67",
"$X c #706E6B",
"%X c #786E68",
"&X c #786F68",
"*X c #797069",
"=X c #7B726B",
"-X c #7D736C",
";X c #7D746C",
":X c #7F776F",
">X c #747474",
",X c #797979",
"<X c gray49",
"1X c gray50",
"2X c #80766E",
"3X c #827971",
"4X c #807B76",
"5X c #7A7290",
"6X c #818181",
"7X c #999088",
"8X c #9C938B",
"9X c #9D948C",
"0X c #9D958D",
"qX c #9E958D",
"wX c #9E968E",
"eX c #9F968E",
"rX c #9F9790",
"tX c #9C9997",
"yX c #A19A92",
"uX c #A59D95",
"iX c #A59E96",
"pX c #A79F97",
"aX c #A19F9D",
"sX c #AAA29A",
"dX c #AAA39B",
"fX c #ACA39B",
"gX c #AAA49C",
"hX c #ADA59D",
"jX c #AFADAC",
"kX c #B8B7B7",
/* pixels */
"                                                                ",
"              5X5X5X5X5X5X5X5X5X5X5X5X5X5X5X5X5X5X              ",
"          5X5XXXXXXXXXXXXXXXXXXXXXXXXXXXXXXXXXXXXX5X5X          ",
"        5XXXXXXXXXXXXXXXXXXXXXXXXXXXXXXXXXXXXXXXXXXXXX5X        ",
"      5XXXXXXXXXXXXXXXXXXXXXXXXXXXXXXXXXXXXXXXXXXXXXXXXX5X      ",
"    5XXXXXXXXXL.L.L.L.L.L.L.L.L.L.L.L.L.L.L.L.L.L.XXXXXXXX5X    ",
"  5XXXXXXXXXJ.Z % % * * * * % % * * * * $ o . . L.L.XXXXXXXX5X  ",
"5XXXXXXXXXL.G.V V.[.N.D.D.].S.n.{.c.}..Xn @ . . . L.L.XXXXXXXX5X",
"5XXXXXXXL.H.r I W 8.] Y W 8.+.P p.W * k.+.N.# . . . L.L.XXXXXX5X",
"5XXXXXXXJ.8 *.W D W D Y [ 8.] P p.m.V U r | V + . . . L.XXXXXX5X",
"5XXXXXXXJ.8 *.W S W D Y D | [ D [ r * I a >.V + . . . L.XXXXXX5X",
"5XXXXXXX(.eXhXiX7X7X7X7XeXgXsXeX7X7X7X7XeXfXeX|.. . . L.XXXXXX5X",
"5XXXXXXX^.*X3X:X@X@X@X@X#X-X:X@X#X@X@X@X*X2X#XQ.. . . L.XXXXXX5X",
"5XXXXXXXJ.; h q q r q q q 1 5 d h 1 r d ; h 1 + . . . L.XXXXXX5X",
"5XXXXXXXJ.v k.W D [ D ^ U h P +.>.v [ *.a +.W + . . . L.XXXXXX5X",
"5XXXXXXXJ.v k.W I | U ^ U v +.q.4.h k.p.a *.D + . . . L.XXXXXX5X",
"5XXXXXXXJ.V k.^ 4.b.s.W U V | q.8.v k.8.r +.I + . . . L.XXXXXX5X",
"5XXXXXXXJ.V k.| >.4.P ^ U k q.Z.x.S k.8.V k.U + . . . L.XXXXXX5X",
"5XXXXXXXJ.k k.| >.4.U W U k 3 X.p.V k.jXkXaXX.+ . . . L.XXXXXX5X",
"5XXXXXXXJ.D k.| >.q.U ^ >.m.l.q.p.v l.$X>XOXW + . . . L.XXXXXX5X",
"5XXXXXXXJ.v k.| 4.4.P W | p.p.q.d.S _.R.Y.E.R.+ . . . L.XXXXXX5X",
"5XXXXXXXJ.v k.| ,.>.P W D &.>.q.9.tX+X*.S '.4X6X. . . L.XXXXXX5X",
"5XXXXXXXJ.v k.+.*.8.D Y D *.>.8.p.).v. .S x.W.P.. . . L.XXXXXX5X",
"5XXXXXXXJ.V k.+.>.*.r r D +.>.8.9.h oX<X<X,X`.+ . . . L.XXXXXX5X",
"5XXXXXXXJ.5 | [ p.F.N.+.S +.5.8.q.h &.U.I.a.D + . . . L.XXXXXX5X",
"5XXXXXXXJ.5 | D I *.[ D S U D >.| ; &.| r [ m + . . . L.XXXXXX5X",
"5XXXXXXXJ.8 | I D | I I D I D I V ^ 5.[ r [ V + . . . L.XXXXXX5X",
"5XXXXXXX(.eXsXiX7X7X7X7X8XiXsX9X7X7X7X7XeXsXyX X. . . L.XXXXXX5X",
"5XXXXXXX^.&X2X-X@X@X@X@X&X-X-X&X@X@X@X@X&X2X&XQ.. . . L.XXXXXX5X",
"5XXXXXXXJ.; h q q r q r q q r r h ; a h ; h 1 + . . . L.XXXXXX5X",
"5XXXXXXXJ.7 [ v 1 h D Y D U D D | r [ [ r [ V + . . . L.XXXXXX5X",
"5XXXXXXXJ.8 *.p.4.S *.8.W *.8.W [ r W [ r [ c + . . . L.XXXXXX5X"
};
