/* XPM */
static char *c5fe487414914af3cf32648b9717a7f4hoh80ydwzqbZO0Qf[] = {
/* columns rows colors chars-per-pixel */
"32 32 225 2 ",
"   c None",
".  c black",
"X  c #010100",
"o  c #060402",
"O  c #100B06",
"+  c #110B06",
"@  c #1B130B",
"#  c #20170F",
"$  c #251B11",
"%  c #2D2115",
"&  c #2C2116",
"*  c #34261A",
"=  c #34271A",
"-  c #35271A",
";  c #34271B",
":  c #35271B",
">  c #34281B",
",  c #36281A",
"<  c #37281B",
"1  c #372A1D",
"2  c #38291B",
"3  c #39291B",
"4  c #38291C",
"5  c #382A1C",
"6  c #392A1C",
"7  c #382B1D",
"8  c #3A2B1C",
"9  c #3B2B1C",
"0  c #3A2B1D",
"q  c #3A2B1E",
"w  c #3B2B1E",
"e  c #3C2B1D",
"r  c #382C1F",
"t  c #3A2C1E",
"y  c #3A2D1F",
"u  c #3C2D1E",
"i  c #3C2D1F",
"p  c #3D2D1F",
"a  c #3F2E1F",
"s  c #2C2C2C",
"d  c #3A2E23",
"f  c #3D2D20",
"g  c #3D2E20",
"h  c #3E2E20",
"j  c #3E2F21",
"k  c #322A2C",
"l  c #3E3020",
"z  c #3F3122",
"x  c #38332F",
"c  c #383330",
"v  c #3C353D",
"b  c #3F3D3B",
"n  c #403021",
"m  c #403121",
"M  c #403122",
"N  c #423122",
"B  c #413222",
"V  c #423222",
"C  c #433222",
"Z  c #423223",
"A  c #433223",
"S  c #433323",
"D  c #443223",
"F  c #453423",
"G  c #423324",
"H  c #443324",
"J  c #443424",
"K  c #453424",
"L  c #453524",
"P  c #463424",
"I  c #463524",
"U  c #463425",
"Y  c #463525",
"T  c #473525",
"R  c #463625",
"E  c #473625",
"W  c #453526",
"Q  c #473526",
"!  c #473626",
"~  c #473627",
"^  c #483625",
"/  c #483726",
"(  c #493726",
")  c #483627",
"_  c #483727",
"`  c #493727",
"'  c #483827",
"]  c #493827",
"[  c #4A3827",
"{  c #4B3927",
"}  c #473729",
"|  c #463A2F",
" . c #493828",
".. c #4A3828",
"X. c #4A3928",
"o. c #4B3928",
"O. c #4B3929",
"+. c #4C3A28",
"@. c #4D3A28",
"#. c #4C3B29",
"$. c #4D3B29",
"%. c #4C3A2A",
"&. c #4C3B2A",
"*. c #4D3B2A",
"=. c #4D3C2A",
"-. c #4D3C2B",
";. c #4E3C2A",
":. c #4E3C2B",
">. c #4F3D2B",
",. c #4E3D2C",
"<. c #4F3E2C",
"1. c #4F3E2D",
"2. c #4E3D2F",
"3. c #503D2C",
"4. c #513E2C",
"5. c #503F2C",
"6. c #503E2D",
"7. c #503F2D",
"8. c #513F2D",
"9. c #523F2C",
"0. c #523F2D",
"q. c #403636",
"w. c #463E39",
"e. c #52402D",
"r. c #51402E",
"t. c #53412E",
"y. c #54402D",
"u. c #55422D",
"i. c #54412F",
"p. c #54422E",
"a. c #55422E",
"s. c #54422F",
"d. c #54432F",
"f. c #55432F",
"g. c #4A433C",
"h. c #544130",
"j. c #574533",
"k. c #594532",
"l. c #584633",
"z. c #584737",
"x. c #594835",
"c. c #5A4834",
"v. c #5C4936",
"b. c #57493E",
"n. c #604C37",
"m. c #634F3A",
"M. c #64513C",
"N. c #65523C",
"B. c #64513E",
"V. c #68543F",
"C. c #68553F",
"Z. c #3C3644",
"A. c #3E3948",
"S. c #3E3949",
"D. c #3F3A49",
"F. c #403A49",
"G. c #413C4E",
"H. c #413D4F",
"J. c #474645",
"K. c #494440",
"L. c #494541",
"P. c #4B4642",
"I. c #4A4947",
"U. c #4F4944",
"Y. c gray29",
"T. c gray30",
"R. c #5A4C41",
"E. c #584E45",
"W. c #50504F",
"Q. c #4F4954",
"!. c #4F4A54",
"~. c #585350",
"^. c #5B565E",
"/. c #5C565E",
"(. c #5B5B5B",
"). c #605141",
"_. c #625345",
"`. c #635447",
"'. c #695C50",
"]. c #625D59",
"[. c #6A625C",
"{. c #6B625C",
"}. c #6A655F",
"|. c #706050",
" X c #575168",
".X c #58526A",
"XX c #766D66",
"oX c #776E67",
"OX c #776E68",
"+X c #786F68",
"@X c #7A716A",
"#X c #7B726B",
"$X c #7B736B",
"%X c #7C736C",
"&X c #7D746C",
"*X c #7E746D",
"=X c #727170",
"-X c #737372",
";X c #777676",
":X c #7F7B78",
">X c #7E7E7E",
",X c #807770",
"<X c #867F7B",
"1X c #8D867F",
"2X c #7A7290",
"3X c #8F8881",
"4X c #94928F",
"5X c #999088",
"6X c #9A9189",
"7X c #9B928A",
"8X c #9C938B",
"9X c #9E958D",
"0X c #9F968E",
"qX c #9F978F",
"wX c #9C9895",
"eX c #A19991",
"rX c #A29991",
"tX c #A39B93",
"yX c #A59D95",
"uX c #A69F97",
"iX c #A79F97",
"pX c #A8A199",
"aX c #A9A199",
"sX c #A9A29A",
"dX c #B4B2B2",
/* pixels */
"                                                                ",
"              2X2X2X2X2X2X2X2X2X2X2X2X2X2X2X2X2X2X              ",
"          2X2X.X.X.X.X.X.X.X.X.X.X.X.X.X.X.X.X.X.X2X2X          ",
"        2X.X.X.X.X.X.X.X.X.X.X.X.X.X.X.X.X.X.X.X.X.X.X2X        ",
"      2X.X.X.X.X.X.X.X.X.X.X.X X.X.X.X.X.X.X X.X.X.X.X.X2X      ",
"    2X.X.X.X.XH.H.H.H.H.H.H.H.H.H.H.H.H.H.H.H.H.H..X.X.X.X2X    ",
"  2X.X.X.X XZ.k & & & & & & & & & $ o X X X X X H.H..X.X.X.X2X  ",
"2X.X.X.X.XD.q.x.C.M.B.V.B.).`.`.|.| # X X X X X X H.H..X.X.X.X2X",
"2X.X.X.XH.v a T -...T *.*.( -.r %.<.j.@ X X X X X X H.H. X.X.X2X",
"2X.X.X.XD.f ( V G V T *...( k.9.V f } ; O X X X X X X H..X.X.X2X",
"2X.X.X.XD.f ( V V V D T } H V * n f  .; O X X X X X X H..X.X.X2X",
"2X.X.X.X/.tXaX9X5X7X7XpXaXqX5X5X7X0XiX3XL.X X X X X X H..X.X.X2X",
"2X.X.X.X!.$X,X$XXXXXoX$X$XoXXXXXXX+X*X[.c X X X X X X H..X.X.X2X",
"2X.X.X.XD.: 9 2 9 2 2 , : a 9 9 9 : a $ O X X X X X X H..X.X.X2X",
"2X.X.X.XD.T e.F H T F z V { ( V { z  .9 O X X X X X X H..X.X.X2X",
"2X.X.X.XF.T 9.F T D T z ( 4. .<.i.z } 1 O X X X X X X H..X.X.X2X",
"2X.X.X.XF.F y.4.j.e.F m T 9...<.i.z T 1 O X X X X X X H. X.X.X2X",
"2X.X.X.XF.{ y.#.-.' F z e.n.i.<.i.{ i.r O X X X X X X H..X.X.X2X",
"2X.X.X.XF.' u.#.-.F T z r { @.e.wXdX4Xd O X X X X X X H..X.X.X2X",
"2X.X.X.XF.T u.#.-.( { c.x.d.*.4.}.=X].r O X X X X X X H..X.X.X2X",
"2X.X.X.XF.T i.#.*.F { e.i.i.-.P.W.Y.T.b O X X X X X X H..X.X.X2X",
"2X.X.X.XF.' u.#.@.F V T -.e.oX1XR.' '.:X(.X X X X X X H..X.X.X2X",
"2X.X.X.XF.T i.-.{ T V { @.4.b.E.<.W z.g.s X X X X X X H..X.X.X2X",
"2X.X.X.XA.' u...{ a r T 4.y.-.W.;X>X-XY.O X X X X X X H..X.X.X2X",
"2X.X.X.XD.r { h.m.v. .T *.9.{ T g.J.w.; O X X X X X X H..X.X.X2X",
"2X.X.X.XD.a T T ( H n V T ..V V ..f T * O X X X X X X H..X.X.X2X",
"2X.X.X.XD.a T V H T H V V G G -.*.a } * O X X X X X X H..X.X.X2X",
"2X.X.X.X^.tXyX9X5X5X7XrXyX9X7X5X7X9XaX3XP.X X X X X X H..X.X.X2X",
"2X.X.X.X!.@X*XOXXXXXoX$X*X+XXXXXXXOX*X[.c X X X X X X H..X.X.X2X",
"2X.X.X.XD.* 2 1 2 2 2 9 < , 1 9 9 * 9 & O X X X X X X H..X.X.X2X",
"2X.X.X.XD.f T 9 a n D G G V V V ( f T : O X X X X X X H..X.X.X2X",
"2X.X.X XD.f <.<.} *...( *. .D V ( f T : O X X X X X X H..X.X.X2X"
};
