/* XPM */
static char *_6b0db39441041e1ace3a93b3c3d80366Xe2FqxCCtltXK6K[] = {
/* columns rows colors chars-per-pixel */
"32 32 38 1 ",
"  c #2B1835",
". c #2D1836",
"X c #2C1937",
"o c #311B3B",
"O c #311C3D",
"+ c #2E2235",
"@ c #33273A",
"# c #361F41",
"$ c #362042",
"% c #382B40",
"& c #3B2248",
"* c #3D244A",
"= c #3D244B",
"- c #40264D",
"; c #413546",
": c #42334A",
"> c #42334C",
", c #43334C",
"< c #45354E",
"1 c #45394B",
"2 c #473C4D",
"3 c #473751",
"4 c #4C3F52",
"5 c #4D4054",
"6 c #4E4154",
"7 c #4E4155",
"8 c #54465B",
"9 c #55465B",
"0 c #5A4C63",
"q c #5B4D63",
"w c #5C4C63",
"e c #5F4F67",
"r c #5B4B6E",
"t c #62526A",
"y c #6D5A7D",
"u c #766284",
"i c #7E698B",
"p c #877193",
/* pixels */
"--------------------------------",
"ppp-pppppp-tttttt-pppppp-pppppp-",
"ttt-tttttt-tttttt-tttttt-tttttt-",
"333-333333-tttttt-333333-tttttt-",
"--------------------------------",
"tttttt-pppppp-tttttt-ppppppp-ttt",
"tttttt-tttttt-tttttt-ttttttt-ttt",
"333333-tttttt-tttttt-3333333-333",
"--------------------------------",
"ppp-tttttt-pppppp-tttttt-pppppp-",
"ttt-tttttt-tttttt-tttttt-tttttt-",
"333-tttttt-33333<-tttttt-tttttt-",
"--------------------------------",
"tttttt-tttttt-pppppp-ppppppp-ppp",
"eeeeee=eeeeee=eeeete=eeeeeee=eee",
"eeeeee=<<<<<<=eeeeee=<<<<<<<=eee",
"=============================***",
"000&iiiiii&iiiiii&iiiiii&qqqqqw*",
"00q=qqqq00&00e00q&00qq00&0qqwww&",
"q0q&:<:<:<&0000eq&q0q00t&<::%::&",
"$$$$&$$$$$$$$$$$$$=$$$$$$$$$&O$$",
"uuuuuu$999998$uuuuuu$9999999$uuu",
"999999$999998#999999$9999999$999",
"%%%@%@O666665#%@@@%%O6666666o777",
"@#OOOOOOOOOOOO#OOOOOOOOoOOOOXOOO",
"447OyyyyyyO666777OyyyyyyO677666O",
"322X222222X222222X222222 221112X",
"@@@X222222X@@@@@@X222222 221111 ",
"XXXXXXXXXXXXXXXXXXXXXXXXXXX. XXX",
"rrrrrr+rrrrrr+rrrrrr+rrrrrrr+rrr",
";;;;;;+,;;;;;+;;;;;;+;;;;;;;+;;;",
"++++++++++++++++++++++++++++++++"
};
