/* XPM */
static char *Y29pbjc_[] = {
/* columns rows colors chars-per-pixel */
"32 32 8 1 ",
"  c #71693F",
". c #DEBD00",
"X c #DFBD00",
"o c #DFBE00",
"O c #F5DB38",
"+ c #FFFF3A",
"@ c #ADABAC",
"# c None",
/* pixels */
"################################",
"################################",
"##############    ##############",
"############  OOOO #############",
"########### ++OOOOO ############",
"########## +++OO+++ ############",
"########## +++++++++ ###########",
"########## + +++++++ ###########",
"########## + +++++++ ###########",
"########## + +++++++ ###########",
"########## + +++OOOOO ##########",
"########## +X+++OXXXX ##########",
"########### +++++XXXX ##########",
"########### +++++XXXX ##########",
"########### +++++XXXX ##########",
"############ +X++XXXX ##########",
"############ ++++XXXX ##########",
"############# ++XXXX ###########",
"############# ++X   ############",
"##############   ###############",
"################################",
"################################",
"################################",
"################################",
"################################",
"################################",
"#############@@@@@@#############",
"###########@@@@@@@@@@###########",
"###########@@@@@@@@@@###########",
"###########@@@@@@@@@@###########",
"#############@@@@@@#############",
"################################"
};
